<svg width="720" height="960" viewBox="0 0 720 960" fill="none" xmlns="http://www.w3.org/2000/svg">
<rect width="720" height="960" fill="#74C85F"/>
<rect y="229.714" width="720" height="13.7143" fill="white"/>
<rect y="473.143" width="720" height="13.7143" fill="white"/>
<rect y="716.571" width="720" height="13.7143" fill="white"/>
<path d="M359.774 149.486C473.093 149.486 564.957 82.5587 564.957 3.05176e-05L154.592 -3.85425e-06C154.592 82.5587 246.456 149.486 359.774 149.486Z" fill="white"/>
<path d="M358.833 139.886C464.767 139.886 550.642 77.2568 550.642 3.05176e-05L167.024 -1.61404e-06C167.024 77.2567 252.9 139.886 358.833 139.886Z" fill="#74C85F"/>
<path d="M358.343 810.514C245.024 810.514 153.161 877.441 153.161 960H563.525C563.525 877.441 471.662 810.514 358.343 810.514Z" fill="white"/>
<path d="M359.284 820.114C253.351 820.114 167.475 882.743 167.475 960H551.093C551.093 882.743 465.218 820.114 359.284 820.114Z" fill="#74C85F"/>
</svg>
